# xmcd
# 
# Track frame offsets:
#     150
#     27898
#     56480
#     94875
#     127715
#     129990
#     160528
#     198925
#     226683
#     260193
# 
# Disc length: 3861
# 
# Revision: 4
# Processed by: cddbd v1.5.2PL0 Copyright (c) Steve Scherf et al.
# Submitted via: fre:ac v1.1beta1pre5
# 
DISCID=750f130a
DTITLE=Bill Evans - The Complete Live At The Village Vanguard
DYEAR=1961
DGENRE=Piano Jazz
TTITLE0=D1 Gloria's Step (Take 2)
TTITLE1=D2 My Man's Gone Now
TTITLE2=D3 All Of You (Take 2)
TTITLE3=E1 Detour Ahead (Take 1)
TTITLE4=E2 Discussing Repertoire
TTITLE5=E3 Waltz For Debby (Take 1)
TTITLE6=E4 Alice In Wonderland (Take 2)
TTITLE7=F1 Porgy (I Loves You, Porgy)
TTITLE8=F2 My Romance (Take 2)
TTITLE9=F3 Milestones
EXTD=
EXTT0=
EXTT1=
EXTT2=
EXTT3=
EXTT4=
EXTT5=
EXTT6=
EXTT7=
EXTT8=
EXTT9=
PLAYORDER=
